<svg width="26" height="36" viewBox="0 0 26 36" fill="none" xmlns="http://www.w3.org/2000/svg">
<path d="M3.76018 17.56C2.84018 16.9467 0.908169 14.34 2.38017 12.5C3.85217 10.66 5.14013 11.7333 5.60011 12.5C5.44677 11.58 5.50811 9.64796 6.98011 9.27996C8.82011 8.81996 10.6601 10.2 10.6601 12.04C10.2001 10.5066 10.0161 7.53198 12.9601 7.89998C14.8212 8.13261 15.3881 9.42411 15.3154 11.12M13.4202 17.56C14.1023 15.7411 15.2443 12.7774 15.3154 11.12M15.3154 11.12C16.5236 8.66663 19.5841 4.40397 22.1601 6.97997C25.3801 10.2 23.0802 12.04 19.4002 17.56" stroke="#333333" stroke-linecap="round" stroke-linejoin="round"/>
<path d="M22.1602 6.98L23.0802 1" stroke="#333333" stroke-linecap="round" stroke-linejoin="round"/>
<path d="M24.9201 3.76001L22.6201 6.98001" stroke="#333333" stroke-linecap="round" stroke-linejoin="round"/>
<path d="M20.7805 15.26C20.6272 14.9534 19.8605 14.156 18.0205 13.42" stroke="#333333" stroke-linecap="round" stroke-linejoin="round"/>
<path d="M17.1006 8.81995C17.7139 8.97328 19.2166 9.55595 20.3206 10.6599" stroke="#333333" stroke-linecap="round" stroke-linejoin="round"/>
<path d="M11.1201 16.64L11.5801 12.96" stroke="#333333" stroke-linecap="round" stroke-linejoin="round"/>
<path d="M9.28043 18.02L7.44043 14.34" stroke="#333333" stroke-linecap="round" stroke-linejoin="round"/>
<path d="M3.76 18.7193L1 16.1801V33.5001C1 34.6046 1.89543 35.5001 3 35.5001H21.08C22.1846 35.5001 23.08 34.6046 23.08 33.5001V16.1801L20.32 18.7193L17.56 16.1801L14.8 18.7193L12.04 16.1801L9.28 18.7193L6.52 16.1801L3.76 18.7193Z" stroke="#333333" stroke-linecap="round" stroke-linejoin="round"/>
</svg>
