<svg width="51" height="42" viewBox="0 0 51 42" fill="none" xmlns="http://www.w3.org/2000/svg">
<path d="M16.3125 19C16.3125 19 14.6613 16.3457 17.3106 15.284L20.4897 14.2223C20.4897 14.2223 22.6091 13.1605 23.6688 16.8766L24.1987 18.4691M18.7407 14.8024L17.6801 11.6173M26.785 18.5185C26.785 15.3333 28.92 13.2099 31.5536 13.2099C34.1873 13.2099 36.3223 15.3333 36.3223 18.5185M17.5808 11.7255C17.5808 11.7255 20.5918 11.921 20.8361 9.57662C21.0804 7.23225 19.3355 6.84502 19.3355 6.84502C19.3355 6.84502 20.0137 5.43714 18.9168 4.06044C17.996 2.8546 16.0741 3.10071 16.0741 3.10071C16.0741 3.10071 15.3238 0.38282 13.2877 1.12998C10.9973 1.97046 12.391 4.50863 12.391 4.50863C12.391 4.50863 11.0318 5.50718 11.379 7.19777C11.6961 8.74199 12.8796 9.09396 12.8796 9.09396C12.8796 9.09396 12.391 11.7255 14.1708 12.4853C16.1163 13.1951 17.5808 11.7255 17.5808 11.7255ZM36.1097 8.44992C36.1097 8.44992 31.554 7.87914 32.0838 13.1878C37.3823 13.1878 36.1097 8.44992 36.1097 8.44992Z" stroke="#5DAB24" stroke-width="2" stroke-miterlimit="10"/>
<path d="M6.70709 18.4922H43.9379L39.3223 37.5C39.3223 37.5 38.9318 40.5714 35.284 40.5714C24.6302 40.5714 25.8223 40.5714 15.3609 40.5714C11.779 40.5714 11.3223 37.5 11.3223 37.5L6.70709 18.4922Z" stroke="#5DAB24" stroke-width="2" stroke-linecap="round" stroke-linejoin="round"/>
<path d="M10.3226 18.0001L5.87829 5.7992" stroke="#5DAB24" stroke-width="2" stroke-linecap="round" stroke-linejoin="round"/>
<path d="M40.3223 18L44.7664 5.7995" stroke="#5DAB24" stroke-width="2" stroke-linecap="round" stroke-linejoin="round"/>
<path d="M33.4667 25.3361V34.0515" stroke="#5DAB24" stroke-width="2" stroke-linecap="round" stroke-linejoin="round"/>
<path d="M25.3225 25.3361V34.0515" stroke="#5DAB24" stroke-width="2" stroke-linecap="round" stroke-linejoin="round"/>
<path d="M17.1782 25.3361V34.0515" stroke="#5DAB24" stroke-width="2" stroke-linecap="round" stroke-linejoin="round"/>
<path d="M46.3223 18.5H4.32227" stroke="#5DAB24" stroke-width="2" stroke-linecap="round" stroke-linejoin="round"/>
</svg>
