<svg width="19" height="22" viewBox="0 0 19 22" fill="none" xmlns="http://www.w3.org/2000/svg">
<path d="M10.25 18H1.24997C1.24997 18 0.25 15 2.24997 15C2.24997 15 3.25038 15 3.25038 14C3.25038 12.8 3.25038 10.8333 3.25038 10C3.25038 8.16667 4.25038 4.2 8.25038 3C8.25038 2.33333 8.55038 1 9.75038 1" stroke="#2F303B"/>
<path d="M9.25003 18H18.25C18.25 18 19.25 15 17.25 15C17.25 15 16.2496 15 16.2496 14C16.2496 12.8 16.2496 10.8333 16.2496 10C16.2496 8.16667 15.2496 4.2 11.2496 3C11.2496 2.33333 10.9496 1 9.74962 1" stroke="#2F303B"/>
<path d="M13 18C13 19.6569 11.6569 21 10 21C8.34315 21 7 19.6569 7 18" stroke="#2F303B"/>
</svg>
