<svg width="270" height="161" viewBox="0 0 270 161" fill="none" xmlns="http://www.w3.org/2000/svg">
<mask id="mask0" mask-type="alpha" maskUnits="userSpaceOnUse" x="0" y="0" width="270" height="161">
<path d="M0 0H269.731V161H0V0Z" fill="#C4C4C4"/>
</mask>
<g mask="url(#mask0)">
<path d="M206.858 -58.6063C159.285 -85.1509 118.131 -77.9786 118.131 -77.9786C118.34 -78.0066 122.778 -57.3635 122.778 -57.3635C175.243 -54.2763 203.459 -34.725 214.487 -15.5018C217.179 -10.8097 218.847 -6.13723 219.593 -1.72845C229.876 59.0142 161.815 69.438 161.815 69.438C114.744 79.1362 86.418 64.7754 87.3079 64.8836L90.6793 36.3224L16.2925 77.3761L70.3107 147.853L74.3916 125.286C74.3916 125.286 245.31 148.483 258.855 37.5372C260.845 21.2466 256.311 2.01948 247.114 -15.5018C237.818 -33.2097 223.759 -49.1752 206.858 -58.6063Z" fill="#F24C4C"/>
</g>
</svg>
