<svg width="30" height="25" viewBox="0 0 30 25" fill="none" xmlns="http://www.w3.org/2000/svg">
<path d="M8.97503 4.06305L8.00285 3.82881V3.82881L8.97503 4.06305ZM8.75398 4.98047V5.98047H9.54166L9.72616 5.21471L8.75398 4.98047ZM21.246 4.98047L20.2738 5.21471L20.4583 5.98047H21.246V4.98047ZM21.025 4.06304L21.9972 3.82881V3.82881L21.025 4.06304ZM9.94721 4.29728C10.2719 2.94968 11.4776 2 12.8637 2V0C10.5535 0 8.544 1.58281 8.00285 3.82881L9.94721 4.29728ZM9.72616 5.21471L9.94721 4.29728L8.00285 3.82881L7.7818 4.74623L9.72616 5.21471ZM5 5.98047H8.75398V3.98047H5V5.98047ZM2 8.98046C2 7.32361 3.34314 5.98047 5 5.98047V3.98047C2.23858 3.98047 0 6.21904 0 8.98046H2ZM2 19.761V8.98046H0V19.761H2ZM5 22.761C3.34315 22.761 2 21.4178 2 19.761H0C0 22.5224 2.23858 24.761 5 24.761V22.761ZM25 22.761H5V24.761H25V22.761ZM28 19.761C28 21.4178 26.6569 22.761 25 22.761V24.761C27.7614 24.761 30 22.5224 30 19.761H28ZM28 8.98047V19.761H30V8.98047H28ZM25 5.98047C26.6569 5.98047 28 7.32361 28 8.98047H30C30 6.21905 27.7614 3.98047 25 3.98047V5.98047ZM21.246 5.98047H25V3.98047H21.246V5.98047ZM20.0528 4.29728L20.2738 5.21471L22.2182 4.74623L21.9972 3.82881L20.0528 4.29728ZM17.1363 2C18.5224 2 19.7281 2.94968 20.0528 4.29728L21.9972 3.82881C21.456 1.58281 19.4465 0 17.1363 0V2ZM12.8637 2H17.1363V0H12.8637V2Z" fill="#5DAB24"/>
<circle cx="14.9999" cy="13.5171" r="5.48781" stroke="#5DAB24" stroke-width="2"/>
</svg>
