<svg width="36" height="42" viewBox="0 0 36 42" fill="none" xmlns="http://www.w3.org/2000/svg">
<circle opacity="0.32" cx="18" cy="24" r="16" fill="#5DAB24"/>
<circle cx="18" cy="24" r="10" fill="white"/>
<path d="M14.8714 28.1709C16.6634 28.1709 17.7279 26.7695 17.7279 24.3965C17.7279 22.0674 16.5951 20.7783 14.9105 20.7783C13.3773 20.7783 12.2933 21.8086 12.2933 23.2539C12.2933 24.6064 13.2699 25.5928 14.6126 25.5928C15.4378 25.5928 16.1068 25.2119 16.4388 24.543H16.5218C16.5072 26.1738 15.9163 27.1162 14.8861 27.1162C14.2806 27.1162 13.7972 26.7891 13.6458 26.2617H12.391C12.596 27.4141 13.5824 28.1709 14.8714 28.1709ZM14.9154 24.5967C14.0951 24.5967 13.5286 24.0303 13.5286 23.2148C13.5286 22.4287 14.1243 21.8281 14.9202 21.8281C15.7161 21.8281 16.3118 22.4385 16.3118 23.2393C16.3118 24.0254 15.7308 24.5967 14.9154 24.5967ZM21.6683 28.1758C23.3529 28.1758 24.3538 26.8086 24.3538 24.4795C24.3538 22.1406 23.3382 20.7783 21.6683 20.7783C19.9935 20.7783 18.9779 22.1406 18.9779 24.4697C18.9779 26.8086 19.9788 28.1758 21.6683 28.1758ZM21.6683 27.1309C20.7747 27.1309 20.2523 26.2178 20.2523 24.4697C20.2523 22.7363 20.7845 21.8281 21.6683 21.8281C22.5521 21.8281 23.0794 22.7314 23.0794 24.4697C23.0794 26.2178 22.5618 27.1309 21.6683 27.1309Z" fill="black"/>
<circle cx="18" cy="24" r="17" stroke="black" stroke-width="2"/>
<rect x="14.3638" width="7.27273" height="3.63636" fill="black"/>
<rect x="16.7881" y="3.63647" width="2.42424" height="3.63636" fill="black"/>
</svg>
