<svg width="30" height="26" viewBox="0 0 30 26" fill="none" xmlns="http://www.w3.org/2000/svg">
<path d="M1.5 11.9367L15.1709 1L28.8418 11.9367" stroke="#2F303B" stroke-width="2" stroke-linecap="round" stroke-linejoin="round"/>
<path d="M5.44933 8.8988V22.2659C5.44933 22.2659 5.51009 25.0001 8.18351 25.0001C10.8569 25.0001 18.8164 25.0001 22.462 25.0001C22.462 25.0001 25.1962 24.9393 25.1962 22.2659C25.1962 19.5925 25.1962 12.2406 25.1962 8.8988" stroke="#2F303B" stroke-width="2" stroke-linecap="round" stroke-linejoin="round"/>
<path d="M18.8164 25.0001V18.0127C18.8164 18.0127 18.8164 15.2786 16.0822 15.2786C14.5633 15.2786 14.5633 15.2786 14.5633 15.2786C14.5633 15.2786 11.8291 15.2786 11.8291 18.0127C11.8291 20.4431 11.8291 23.6836 11.8291 25.0001" stroke="#2F303B" stroke-width="2" stroke-linecap="round" stroke-linejoin="round"/>
</svg>
