<svg width="24" height="24" viewBox="0 0 24 24" fill="none" xmlns="http://www.w3.org/2000/svg">
<path d="M21.1028 13.8544L17.7002 14.9474L14.9274 13.3011L16.3683 12.8791C16.7563 12.7654 17.0171 12.4113 17.0171 11.9978C17.0171 11.5837 16.7561 11.2292 16.3675 11.1156L14.9309 10.6969L17.7013 9.05194L21.1052 10.1237C21.1491 10.1376 21.1932 10.1438 21.2369 10.1438C21.428 10.1438 21.6052 10.0172 21.6644 9.82023C21.7369 9.57808 21.6043 9.32162 21.3682 9.24731L18.7569 8.4252L20.9689 7.11186C21.1827 6.98474 21.2555 6.70455 21.1316 6.48568C21.008 6.26681 20.7338 6.19161 20.5202 6.31873L18.3268 7.62099L18.9876 4.77275C19.0449 4.52657 18.8963 4.2795 18.656 4.22087C18.414 4.16089 18.1744 4.31486 18.1174 4.56059L17.2605 8.25417L14.4875 9.90057L14.848 8.4233C14.9459 8.02181 14.7766 7.61361 14.4269 7.40682C14.0771 7.20003 13.6473 7.25464 13.3574 7.54289L12.2894 8.60345V5.31478L14.8426 2.69906C15.0173 2.52002 15.0173 2.22998 14.8426 2.05094C14.6678 1.87191 14.3847 1.87191 14.21 2.05094L12.2894 4.01855V1.45833C12.2894 1.205 12.0891 1 11.8421 1C11.595 1 11.3947 1.205 11.3947 1.45833V4.01855L9.47421 2.05094C9.29946 1.87191 9.01637 1.87191 8.84162 2.05094C8.66687 2.22998 8.66687 2.52002 8.84162 2.69906L11.3947 5.31478V8.60793L10.3218 7.54468C10.0312 7.25688 9.60113 7.20317 9.25206 7.40995C8.90234 7.61719 8.73349 8.02584 8.83201 8.42733L9.19287 9.89834L6.4237 8.25417L5.56679 4.56059C5.50978 4.31441 5.26819 4.16044 5.02812 4.22087C4.78784 4.2795 4.6393 4.52657 4.69653 4.77275L5.35725 7.62099L3.16397 6.31873C2.9499 6.19161 2.67642 6.26681 2.55256 6.48568C2.42871 6.70455 2.50145 6.98474 2.7153 7.11186L4.93389 8.42912L2.31359 9.27104C2.07789 9.34668 1.94661 9.60404 2.02066 9.8453C2.08052 10.0413 2.25701 10.1667 2.44727 10.1667C2.49162 10.1667 2.53683 10.16 2.5814 10.1456L5.98398 9.05261L8.75684 10.699L7.31561 11.1214C6.92722 11.2351 6.66685 11.59 6.66706 12.0036C6.6675 12.4172 6.92853 12.7712 7.3167 12.8844L8.75293 13.3033L5.98398 14.9474L2.5814 13.8544C2.3457 13.7787 2.09428 13.913 2.02066 14.1547C1.94661 14.396 2.07789 14.6533 2.31359 14.729L4.93389 15.5709L2.7153 16.8881C2.50145 17.0153 2.42871 17.2955 2.55256 17.5143C2.63557 17.6611 2.78563 17.743 2.94007 17.743C3.01609 17.743 3.09341 17.7233 3.16397 17.6813L5.35725 16.379L4.69653 19.2273C4.6393 19.4734 4.78784 19.7205 5.02812 19.7791C5.06307 19.7876 5.0978 19.7917 5.1321 19.7917C5.33459 19.7917 5.51808 19.6498 5.56679 19.4394L6.4237 15.7458L9.19672 14.0993L8.83616 15.5767C8.7383 15.9782 8.90759 16.3864 9.2573 16.5932C9.39885 16.6769 9.55329 16.7176 9.7062 16.7176C9.93184 16.7176 10.1542 16.629 10.3268 16.4571L11.3947 15.3969V18.6852L8.84162 21.3009C8.66687 21.48 8.66687 21.77 8.84162 21.9491C9.01637 22.1281 9.29946 22.1281 9.47421 21.9491L11.3947 19.9814V22.5417C11.3947 22.795 11.595 23 11.8421 23C12.0891 23 12.2894 22.795 12.2894 22.5417V19.9814L14.21 21.9491C14.2973 22.0386 14.4118 22.0833 14.5263 22.0833C14.6407 22.0833 14.7552 22.0386 14.8426 21.9491C15.0173 21.77 15.0173 21.48 14.8426 21.3009L12.2894 18.6852V15.3924L13.3624 16.4553C13.6527 16.7427 14.0824 16.7964 14.4321 16.59C14.7818 16.3833 14.9507 15.9742 14.8522 15.5727L14.4913 14.1017L17.2605 15.7458L18.1174 19.4394C18.1661 19.6498 18.3496 19.7917 18.5521 19.7917C18.5864 19.7917 18.6211 19.7876 18.656 19.7791C18.8963 19.7205 19.0449 19.4734 18.9876 19.2273L18.3269 16.379L20.5202 17.6813C20.5908 17.7233 20.6681 17.743 20.7441 17.743C20.8985 17.743 21.0486 17.6611 21.1316 17.5143C21.2555 17.2955 21.1827 17.0153 20.9689 16.8881L18.7503 15.5709L21.3706 14.729C21.6063 14.6533 21.7376 14.396 21.6635 14.1547C21.5897 13.913 21.3391 13.7796 21.1028 13.8544ZM12.1545 13.9837C12.1142 13.9439 12.0676 13.9154 12.0189 13.894C12.0178 13.8935 12.0171 13.8925 12.016 13.8921C11.9057 13.8446 11.7818 13.8441 11.6714 13.8914C11.6459 13.9022 11.6262 13.9215 11.6033 13.9367C11.5795 13.9527 11.5533 13.9631 11.5321 13.9842L11.5263 13.99C11.526 13.9903 11.5257 13.9906 11.5255 13.9908L9.70423 15.7987L10.3218 13.2689C10.3301 13.2349 10.326 13.2018 10.3267 13.1681C10.3271 13.1449 10.333 13.1226 10.33 13.0993C10.3077 12.9229 10.1871 12.7689 10.0103 12.717L7.56179 12.0027L10.0094 11.2856C10.0289 11.2799 10.0433 11.2664 10.0614 11.2583C10.0844 11.2483 10.1066 11.2374 10.1278 11.2234C10.1485 11.2096 10.1676 11.1958 10.1855 11.1789C10.2085 11.1577 10.228 11.1326 10.2467 11.1062C10.2884 11.0457 10.3193 10.9787 10.3289 10.9042C10.3365 10.8491 10.3323 10.7941 10.3206 10.7406C10.32 10.738 10.3209 10.7354 10.3202 10.7329L10.3201 10.7322C10.3186 10.7263 10.3174 10.7207 10.3158 10.7147L9.69964 8.20353L11.5297 10.0167C11.6622 10.1479 11.8533 10.1776 12.0138 10.1084C12.0318 10.1006 12.0452 10.0862 12.062 10.0763C12.0928 10.0578 12.1253 10.0429 12.152 10.0163L13.9813 8.19413C13.9813 8.19413 13.981 8.19637 13.9799 8.20129L13.3624 10.7315C13.3543 10.7649 13.3584 10.7975 13.3576 10.8306C13.357 10.8542 13.3511 10.8771 13.3542 10.9007C13.3634 10.9746 13.3929 11.0413 13.4338 11.1013C13.4538 11.1305 13.4753 11.1574 13.5004 11.1802C13.516 11.1947 13.5326 11.2066 13.5503 11.2187C13.578 11.2377 13.6073 11.2526 13.6381 11.2647C13.6508 11.2698 13.6605 11.2795 13.6739 11.2834L16.1224 11.9973L13.6748 12.7144C13.4985 12.7661 13.3779 12.9198 13.3553 13.0958C13.3477 13.1509 13.3519 13.2059 13.3636 13.2594C13.3642 13.262 13.3633 13.2646 13.3639 13.2671L13.3641 13.2678C13.3655 13.2737 13.3668 13.2793 13.3684 13.2853L13.9845 15.7965L12.1545 13.9837Z" fill="#00B2FF"/>
</svg>
