<svg width="26" height="26" viewBox="0 0 26 26" fill="none" xmlns="http://www.w3.org/2000/svg">
<path fill-rule="evenodd" clip-rule="evenodd" d="M13.0012 0.199951C9.52485 0.199951 9.08855 0.215151 7.72325 0.277251C6.36055 0.339651 5.43045 0.555451 4.61655 0.871951C3.77465 1.19885 3.06055 1.63625 2.34905 2.34795C1.63705 3.05945 1.19965 3.77355 0.871652 4.61515C0.554352 5.42935 0.338351 6.35975 0.277051 7.72185C0.215951 9.08725 0.199951 9.52375 0.199951 13.0001C0.199951 16.4764 0.215451 16.9113 0.277251 18.2766C0.339951 19.6393 0.555651 20.5695 0.871951 21.3834C1.19915 22.2253 1.63645 22.9394 2.34825 23.6509C3.05945 24.3629 3.77355 24.8013 4.61495 25.1283C5.42935 25.4448 6.35975 25.6605 7.72215 25.7229C9.08755 25.7851 9.52355 25.8003 12.9996 25.8003C16.4762 25.8003 16.9111 25.7851 18.2765 25.7229C19.6391 25.6605 20.5703 25.4448 21.3848 25.1283C22.2264 24.8013 22.9394 24.3629 23.6506 23.6509C24.3626 22.9394 24.7999 22.2253 25.1279 21.3837C25.4426 20.5695 25.6586 19.6391 25.7226 18.277C25.7839 16.9116 25.7999 16.4764 25.7999 13.0001C25.7999 9.52375 25.7839 9.08755 25.7226 7.72215C25.6586 6.35945 25.4426 5.42935 25.1279 4.61545C24.7999 3.77355 24.3626 3.05945 23.6506 2.34795C22.9386 1.63595 22.2265 1.19865 21.3839 0.871951C20.5678 0.555451 19.6373 0.339651 18.2746 0.277251C16.9092 0.215151 16.4746 0.199951 12.9972 0.199951H13.0012Z" fill="#E1306C"/>
<path fill-rule="evenodd" clip-rule="evenodd" d="M11.8529 2.50674C12.1937 2.50624 12.574 2.50674 13.0012 2.50674C16.4188 2.50674 16.8239 2.51904 18.1735 2.58034C19.4215 2.63744 20.0989 2.84594 20.5501 3.02114C21.1474 3.25314 21.5733 3.53044 22.021 3.97844C22.469 4.42644 22.7464 4.85314 22.9789 5.45054C23.1541 5.90114 23.3629 6.57854 23.4197 7.82654C23.481 9.17584 23.4944 9.58124 23.4944 12.9972C23.4944 16.4132 23.481 16.8186 23.4197 18.1679C23.3626 19.4159 23.1541 20.0933 22.9789 20.5439C22.7469 21.1413 22.469 21.5666 22.021 22.0144C21.573 22.4624 21.1477 22.7397 20.5501 22.9717C20.0994 23.1477 19.4215 23.3557 18.1735 23.4128C16.8242 23.4741 16.4188 23.4874 13.0012 23.4874C9.58331 23.4874 9.17821 23.4741 7.82891 23.4128C6.58091 23.3552 5.90351 23.1466 5.45211 22.9714C4.85471 22.7394 4.42801 22.4621 3.98001 22.0141C3.53201 21.5661 3.25471 21.1405 3.02221 20.5429C2.84701 20.0922 2.63821 19.4149 2.58141 18.1669C2.52001 16.8175 2.50781 16.4122 2.50781 12.994C2.50781 9.57584 2.52001 9.17264 2.58141 7.82334C2.63841 6.57534 2.84701 5.89794 3.02221 5.44674C3.25421 4.84944 3.53201 4.42274 3.98001 3.97474C4.42801 3.52674 4.85471 3.24944 5.45211 3.01684C5.90331 2.84084 6.58091 2.63284 7.82891 2.57554C9.00971 2.52224 9.46731 2.50624 11.8529 2.50354V2.50674ZM19.8338 4.63204C18.9858 4.63204 18.2978 5.31934 18.2978 6.16754C18.2978 7.01554 18.9858 7.70354 19.8338 7.70354C20.6818 7.70354 21.3698 7.01554 21.3698 6.16754C21.3698 5.31954 20.6818 4.63204 19.8338 4.63204ZM13.0012 6.42674C9.37101 6.42674 6.42781 9.37004 6.42781 13.0001C6.42781 16.6303 9.37101 19.5722 13.0012 19.5722C16.6314 19.5722 19.5735 16.6303 19.5735 13.0001C19.5735 9.37004 16.6314 6.42674 13.0012 6.42674Z" fill="white"/>
<path fill-rule="evenodd" clip-rule="evenodd" d="M13.0013 8.7334C15.3576 8.7334 17.268 10.6436 17.268 13.0001C17.268 15.3564 15.3576 17.2668 13.0013 17.2668C10.6447 17.2668 8.73462 15.3564 8.73462 13.0001C8.73462 10.6436 10.6447 8.7334 13.0013 8.7334Z" fill="white"/>
</svg>
