<svg width="18" height="17" viewBox="0 0 18 17" fill="none" xmlns="http://www.w3.org/2000/svg">
<path d="M9.00258 3.40765C8.74393 3.31762 8.59506 3.08939 8.40809 2.91547C7.76973 2.32165 7.04322 1.90077 6.18665 1.724C4.48395 1.3726 3.00401 1.74721 1.86874 3.12363C1.39258 3.70094 1.1252 4.37967 1.03858 5.13641C0.842619 6.84837 1.40579 8.31497 2.44094 9.63691C3.0961 10.4736 3.8836 11.1826 4.68343 11.872C5.94926 12.9632 7.29393 13.9534 8.69183 14.8704C8.99599 15.0699 9.00922 15.07 9.31331 14.8704C10.7109 13.9529 12.0542 12.9614 13.3224 11.8729C14.0602 11.2396 14.7819 10.5833 15.4073 9.835C16.1811 8.90924 16.7557 7.87939 16.9368 6.6663C16.9963 6.10374 17.0499 5.62252 16.9196 4.84833C16.6892 3.63604 16.0158 2.7418 14.965 2.1242C14.4007 1.7925 13.7855 1.63477 13.1265 1.60752C11.6193 1.54521 10.3745 2.09882 9.33554 3.16418C9.24247 3.25961 9.14816 3.35175 9.02475 3.40765" stroke="#5DAB24" stroke-width="2" stroke-miterlimit="10" stroke-linecap="round" stroke-linejoin="round"/>
</svg>
