<svg width="26" height="25" viewBox="0 0 26 25" fill="none" xmlns="http://www.w3.org/2000/svg">
<path d="M0.521795 7.8778H5.9607V24.2196H0.521795V7.8778Z" fill="#0077B5"/>
<path d="M3.2772 0C5.1379 0 6.2837 1.2204 6.319 2.8227C6.319 4.3918 5.1379 5.6473 3.2414 5.6473H3.2066C1.3807 5.6473 0.200195 4.3918 0.200195 2.8227C0.200195 1.2204 1.4166 0 3.2772 0Z" fill="#0077B5"/>
<path d="M19.3133 7.4941C22.8924 7.4941 25.5756 9.8303 25.5756 14.8497L25.5754 24.2196H20.1367V15.4767C20.1367 13.2807 19.3496 11.7822 17.3807 11.7822C15.8781 11.7822 14.9831 12.7924 14.59 13.7682C14.4462 14.1178 14.4109 14.605 14.4109 15.0934V24.22H8.9713C8.9713 24.22 9.043 9.4117 8.9713 7.8783H14.4109V10.1929C15.1327 9.0802 16.4256 7.4941 19.3133 7.4941Z" fill="#0077B5"/>
</svg>
