<svg width="140" height="31" viewBox="0 0 140 31" fill="none" xmlns="http://www.w3.org/2000/svg">
<path d="M16.1389 12.9815C12.1099 10.713 8.62382 11.3248 8.62382 11.3248C8.6411 11.3219 9.01693 13.0861 9.01693 13.0861C14.5449 13.4145 16.8934 15.9198 17.216 17.8409C18.0871 23.0318 12.323 23.9226 12.323 23.9226C8.33727 24.7509 5.93833 23.5244 6.0132 23.5331L6.29831 21.0917L0 24.6012L4.5747 30.6233L4.92029 28.6949C4.92029 28.6949 19.3946 30.677 20.5422 21.1964C20.8806 18.3975 18.9857 14.5843 16.1389 12.9815Z" fill="#001C05"/>
<path d="M15.7401 1.92839C15.7401 1.92839 1.26723 -0.0552222 0.121036 9.42253C-0.217351 12.2214 1.67905 16.0331 4.52582 17.636C8.55478 19.9044 12.0394 19.2926 12.0394 19.2926C12.0222 19.2955 11.6463 17.5314 11.6463 17.5314C6.11984 17.2029 3.76985 14.6976 3.44731 12.778C2.57614 7.58859 8.33879 6.69924 8.33879 6.69924C12.3246 5.87092 14.7235 7.09887 14.6486 7.08869L14.3635 9.52861L20.6618 6.02205L16.0857 0L15.7401 1.92839Z" fill="#001C05"/>
<path d="M47.2061 11.2113C43.6192 11.2113 41.8135 12.897 41.3743 15.273L44.8791 16.0737C45.1254 14.8022 45.8367 14.1947 47.0693 14.1947C48.4934 14.1947 49.0679 14.9678 49.0679 16.3222V17.2333H45.6725C42.2498 17.2333 40.8818 18.8638 40.8818 21.2122C40.8818 23.7815 42.496 24.9135 44.6862 24.9135C46.9037 24.9135 48.0657 23.5882 48.7223 21.5159H49.258V24.6374H52.7614V16.3207C52.7628 13.0351 51.1472 11.2113 47.2061 11.2113ZM49.0665 19.6093C49.0665 21.0189 47.998 22.0405 46.3018 22.0405C44.8777 22.0405 44.4126 21.3779 44.4126 20.5481C44.4126 19.6369 45.1786 19.0833 46.3839 19.0833H49.0665V19.6093Z" fill="#001C05"/>
<path d="M63.5215 11.1837C61.4408 11.1837 60.2241 12.5657 59.5401 14.8574H59.0865V11.5427H55.3643V28.8371H59.0865V21.2122H59.5127C60.1693 23.5054 61.3587 25.024 63.523 25.024C66.315 25.024 67.9839 22.6204 67.9839 18.1169C67.9839 13.6149 66.3683 11.1837 63.5215 11.1837ZM61.7144 21.7092C60.1262 21.7092 59.0865 20.4943 59.0865 18.6706V17.649C59.0865 15.77 60.1002 14.5827 61.7418 14.5827C63.5215 14.5827 64.3149 15.7162 64.3149 18.1184C64.3149 20.5205 63.5215 21.7092 61.7144 21.7092Z" fill="#001C05"/>
<path d="M37.1767 18.7535C37.1767 20.384 37.0745 21.516 35.3739 21.516C33.7727 21.516 33.4602 20.6049 33.4602 19.2781V11.4599H29.7365V18.7535C29.7365 20.384 29.1793 21.516 27.591 21.516C26.2216 21.516 25.6197 20.6049 25.6197 19.2781V11.4599H21.8701V20.3288C21.8701 23.1741 23.156 24.915 25.7032 24.915C27.8387 24.915 29.1102 23.5607 29.8215 20.9929H30.3283C30.4925 23.4517 31.2053 24.915 34.8858 24.915C38.1487 24.915 39.7398 22.3051 39.7398 20.7909V11.4599H37.1753V18.7535H37.1767Z" fill="#001C05"/>
<path d="M86.4626 11.1839C84.3271 11.1839 83.0557 12.5383 82.3443 15.1075H81.8375C81.6733 12.6487 80.5502 11.1839 78.2506 11.1839C76.1972 11.1839 74.8437 12.5107 74.1035 15.0523H73.624V11.5428H69.9824V24.6376H73.7061V17.344C73.7061 15.7135 74.7184 14.5815 76.3067 14.5815C77.6487 14.5815 78.2779 15.4926 78.2779 16.8194V24.6376H82.0016V17.344C82.0016 15.7135 82.9865 14.5815 84.5748 14.5815C85.9427 14.5815 86.5461 15.4926 86.5461 16.8194V24.6376H90.2957V15.7687C90.2957 12.9234 89.0084 11.1839 86.4626 11.1839Z" fill="#439B3E"/>
<path d="M98.8645 11.1839C94.6497 11.1839 92.2119 13.836 92.2119 18.3671C92.2119 22.8153 94.8945 24.998 98.8097 24.998C102.506 24.998 104.011 23.2847 104.585 21.0191L101.465 20.1632C101.137 21.1572 100.59 21.987 98.8371 21.987C97.0573 21.987 96.0998 21.0482 95.8809 18.9483H104.669C104.724 18.2581 104.751 17.7335 104.751 17.1798C104.751 13.5599 102.862 11.1839 98.8645 11.1839ZM95.9082 17.0403C96.0998 14.8852 97.0588 14.0016 98.755 14.0016C100.425 14.0016 101.273 14.9956 101.328 17.0403H95.9082Z" fill="#439B3E"/>
<path d="M112.416 11.2117C108.831 11.2117 107.023 12.8974 106.586 15.2734L110.089 16.0741C110.335 14.8025 111.047 14.1951 112.279 14.1951C113.702 14.1951 114.278 14.9682 114.278 16.3226V17.2337H110.882C107.46 17.2337 106.092 18.8642 106.092 21.2126C106.092 23.7818 107.707 24.9139 109.898 24.9139C112.115 24.9139 113.277 23.5885 113.934 21.5163H114.468V24.6377H117.973V16.3226C117.974 13.0354 116.359 11.2117 112.416 11.2117ZM114.278 19.6097C114.278 21.0193 113.209 22.0409 111.513 22.0409C110.089 22.0409 109.624 21.3782 109.624 20.5485C109.624 19.6373 110.39 19.0836 111.595 19.0836H114.278V19.6097Z" fill="#439B3E"/>
<path d="M134.962 16.6813C132.635 16.212 132.279 15.6874 132.279 14.9695C132.279 14.1964 132.881 13.7808 134.114 13.7808C135.456 13.7808 136.057 14.3054 136.358 15.6597L139.672 14.9695C139.207 12.6763 137.974 11.1839 134.196 11.1839C130.528 11.1839 128.748 12.6763 128.748 15.1904C128.748 17.4283 129.952 18.617 133.512 19.3901C135.893 19.8595 136.413 20.3013 136.413 21.1034C136.386 21.9594 135.757 22.3735 134.497 22.3735C132.882 22.3735 132.005 21.628 131.677 20.1908L128.338 20.8825C128.694 23.2585 130.036 25.0271 134.416 25.0271C138.33 25.0271 140 23.4794 140 20.9378C139.999 18.8917 139.014 17.5373 134.962 16.6813Z" fill="#439B3E"/>
<path d="M121.629 25.7539C121.476 25.1058 121.321 24.4402 121.285 23.7717C121.25 23.1135 121.273 22.4435 121.377 21.7896C121.567 20.5849 121.964 19.4122 122.304 18.2438C122.497 17.5811 122.69 16.9185 122.883 16.2573C123.063 15.6397 123.207 15.0148 123.373 14.3943C123.714 13.1213 124.071 11.8555 124.227 10.5433C124.543 7.88104 123.648 5.63585 122.733 3.23081C122.549 2.74544 122.288 2.27897 122.088 1.80377C121.836 2.02466 121.671 2.35889 121.581 2.67278C121.351 3.48657 121.505 4.35849 121.633 5.17374C121.714 5.68526 121.806 6.19388 121.885 6.7054C121.983 7.34045 122.075 7.98567 122.264 8.59892C122.422 9.11335 122.645 9.60163 122.761 10.1277C122.824 10.4154 122.958 10.9095 122.769 11.1783C122.572 11.4603 122.039 10.8819 121.921 10.7395C121.738 10.52 121.635 10.1974 121.511 9.94313C121.383 9.67865 121.243 9.42143 121.063 9.18892C120.916 8.99855 120.722 8.82562 120.471 8.81109C120.251 8.79946 120.068 8.95059 119.99 9.15114C119.783 9.68155 120.005 10.3791 120.156 10.8935C120.329 11.4777 120.513 12.0604 120.657 12.6533C120.745 13.0166 120.804 13.3872 120.918 13.7418C121.11 14.3463 121.324 14.9494 121.437 15.5757C121.488 15.8504 121.528 16.1381 121.47 16.3793C121.469 16.3851 121.468 16.3895 121.468 16.3924C121.466 16.3953 121.465 16.3997 121.463 16.404C121.456 16.4215 121.447 16.4389 121.437 16.4549H121.436C121.436 16.4491 121.423 16.4564 121.426 16.4578C121.423 16.4593 121.42 16.4593 121.416 16.4607C121.397 16.4418 121.387 16.4244 121.365 16.3939C121.168 16.1003 121.115 15.7298 120.959 15.4159C120.841 15.1775 120.761 14.9247 120.624 14.6922C120.463 14.4175 120.235 14.2024 119.974 14.0266C119.804 13.9118 119.55 14.0906 119.571 14.2867C119.724 15.612 120.018 16.9141 120.311 18.2133C120.424 18.7088 120.52 19.2102 120.651 19.7013C120.745 20.0501 120.846 20.4061 120.85 20.7709C120.85 20.7883 120.838 20.8494 120.834 20.8755C120.746 20.8857 120.654 20.8261 120.56 20.7462C120.316 20.5369 120.144 20.2492 119.917 20.021C119.681 19.7842 119.326 19.6665 119.025 19.8641C118.69 20.0835 118.791 20.5122 118.939 20.8101C119.041 21.0136 119.169 21.1996 119.295 21.3885C119.502 21.7024 119.619 22.1093 119.773 22.4537C119.969 22.894 120.213 23.3067 120.416 23.7427C120.63 24.2004 120.859 24.6495 121.076 25.1058C121.295 25.5635 121.473 26.0344 121.653 26.5096C121.756 26.7799 121.898 27.5907 122.16 28.0601C121.931 27.3103 121.81 26.5226 121.629 25.7539Z" fill="#439B3E"/>
<path d="M129.307 9.22947C129.093 8.73975 128.485 8.83275 128.081 8.98534C127.686 9.13356 127.345 9.3995 126.993 9.62474C126.754 9.77733 126.524 9.9459 126.305 10.1246C126.116 10.2787 125.958 10.4676 125.754 10.5998C125.735 10.6115 125.712 10.6274 125.687 10.6405C125.581 10.1116 125.541 9.57098 125.552 9.03184C125.566 8.40406 125.696 7.7879 125.702 7.16157C125.713 5.9002 125.395 4.63737 124.864 3.50533C124.544 2.82378 124.007 2.09718 123.343 1.72953C123.084 1.58566 122.784 1.51591 122.501 1.58421C122.556 1.71645 122.609 1.84433 122.659 1.96349C123.019 2.80344 123.277 3.61141 123.581 4.45427C123.846 5.18813 124.116 5.9467 124.335 6.71835C124.626 7.74285 124.825 8.79351 124.797 9.84418C124.764 11.0867 124.56 12.2943 124.288 13.5062C124.024 14.6862 123.729 15.8531 123.391 17.0128C123.006 18.3294 122.579 19.6387 122.227 20.964C121.877 22.2806 121.752 23.6525 121.971 24.9952C122.079 25.655 122.208 26.3162 122.34 26.9716C122.413 27.3363 122.492 27.7069 122.602 28.0658C122.609 28.0702 122.615 28.076 122.622 28.0818C122.616 28.0803 122.612 28.0789 122.606 28.0774C122.616 28.1123 122.628 28.1472 122.639 28.1821C122.685 27.8711 122.658 27.3232 122.678 27.1968C122.9 25.7741 123.16 24.3151 124.266 23.3124C124.579 23.029 124.983 22.8009 125.179 22.4114C125.267 22.237 125.147 22.0409 124.954 22.0394C124.613 22.038 124.269 22.1978 123.958 22.3271C123.563 22.4913 123.178 22.6701 122.761 22.7718C122.596 22.8125 122.232 22.8183 122.255 22.6236C122.286 22.3504 122.688 22.1121 122.898 21.9784C123.077 21.865 123.178 21.8461 123.396 21.7459C123.687 21.6122 123.964 21.4436 124.23 21.2663C124.727 20.935 125.225 20.5978 125.712 20.252C126.023 20.0311 126.701 19.5065 126.497 19.04C126.284 18.5517 125.515 18.6753 125.13 18.8177C124.848 18.9208 124.59 19.0821 124.312 19.1926C124.207 19.2333 124.095 19.2783 123.982 19.2653C123.954 19.2623 123.928 19.2464 123.951 19.2623C123.948 19.2594 123.944 19.258 123.942 19.2565C123.942 19.2522 123.942 19.2464 123.938 19.2362C123.938 19.2376 123.945 19.1504 123.954 19.1083C123.968 19.0386 124 18.9746 124.033 18.9121C124.124 18.7334 124.288 18.5808 124.417 18.4326C124.597 18.2248 124.795 18.0358 125.011 17.8673C125.124 17.7786 125.244 17.7016 125.368 17.6275C125.505 17.5461 125.623 17.4313 125.742 17.3238C126.155 16.9561 126.56 16.5899 127.016 16.2775C127.346 16.0522 127.687 15.7936 127.878 15.4303C128.076 15.0495 127.937 14.5482 127.545 14.368C127.145 14.1834 126.554 14.3811 126.163 14.522C125.922 14.6078 125.679 14.7385 125.422 14.7618C125.363 14.7676 125.349 14.7458 125.335 14.7226C125.332 14.7182 125.33 14.6237 125.339 14.57C125.397 14.1878 125.64 13.8376 125.87 13.5397C126.22 13.0863 126.645 12.6968 127.07 12.3175C127.757 11.7028 128.469 11.0707 129.005 10.3121C129.208 10.02 129.469 9.59568 129.307 9.22947Z" fill="#439B3E"/>
</svg>
