<svg width="137" height="31" viewBox="0 0 137 31" fill="none" xmlns="http://www.w3.org/2000/svg">
<path d="M15.7931 13.2189C11.8504 10.9991 8.43903 11.5978 8.43903 11.5978C8.45593 11.595 8.82371 13.3213 8.82371 13.3213C14.2332 13.6427 16.5314 16.0943 16.8471 17.9743C17.6995 23.0539 12.059 23.9256 12.059 23.9256C8.15862 24.7362 5.81108 23.536 5.88435 23.5445L6.16335 21.1554L0 24.5897L4.47667 30.4827L4.81485 28.5957C4.81485 28.5957 18.979 30.5353 20.102 21.2578C20.4332 18.519 18.5788 14.7875 15.7931 13.2189Z" fill="white"/>
<path d="M15.4029 2.40274C15.4029 2.40274 1.24012 0.461627 0.118491 9.73628C-0.212644 12.4752 1.64312 16.2052 4.42889 17.7738C8.37152 19.9936 11.7815 19.3949 11.7815 19.3949C11.7646 19.3977 11.3968 17.6714 11.3968 17.6714C5.98875 17.35 3.68912 14.8984 3.37348 13.0198C2.52099 7.94165 8.16015 7.07135 8.16015 7.07135C12.0605 6.26078 14.408 7.46241 14.3348 7.45246L14.0558 9.84009L20.2191 6.40867L15.741 0.515666L15.4029 2.40274Z" fill="white"/>
<path d="M46.1946 11.4869C42.6845 11.4869 40.9175 13.1365 40.4878 15.4615L43.9175 16.2451C44.1584 15.0008 44.8545 14.4064 46.0607 14.4064C47.4543 14.4064 48.0165 15.1629 48.0165 16.4883V17.3799H44.6939C41.3445 17.3799 40.0059 18.9754 40.0059 21.2735C40.0059 23.7877 41.5854 24.8954 43.7287 24.8954C45.8987 24.8954 47.0358 23.5985 47.6783 21.5707H48.2025V24.6253H51.6308V16.4868C51.6322 13.2716 50.0512 11.4869 46.1946 11.4869ZM48.0151 19.7049C48.0151 21.0843 46.9696 22.084 45.3097 22.084C43.9161 22.084 43.4609 21.4356 43.4609 20.6236C43.4609 19.732 44.2106 19.1902 45.39 19.1902H48.0151V19.7049Z" fill="white"/>
<path d="M62.1607 11.4599C60.1246 11.4599 58.9339 12.8123 58.2646 15.0549H57.8207V11.8112H54.1782V28.7351H57.8207V21.2735H58.2378C58.8803 23.5175 60.0443 25.0036 62.1621 25.0036C64.8943 25.0036 66.5275 22.6515 66.5275 18.2445C66.5275 13.839 64.9465 11.4599 62.1607 11.4599ZM60.3923 21.7599C58.8381 21.7599 57.8207 20.571 57.8207 18.7863V17.7866C57.8207 15.9479 58.8127 14.7861 60.4191 14.7861C62.1607 14.7861 62.9371 15.8953 62.9371 18.246C62.9371 20.5966 62.1607 21.7599 60.3923 21.7599Z" fill="white"/>
<path d="M36.3797 18.8673C36.3797 20.4628 36.2797 21.5706 34.6155 21.5706C33.0486 21.5706 32.7429 20.679 32.7429 19.3807V11.73H29.099V18.8673C29.099 20.4628 28.5537 21.5706 26.9994 21.5706C25.6594 21.5706 25.0704 20.679 25.0704 19.3807V11.73H21.4011V20.4088C21.4011 23.1932 22.6594 24.8968 25.1521 24.8968C27.2418 24.8968 28.486 23.5715 29.1821 21.0587H29.6781C29.8387 23.4648 30.5362 24.8968 34.1379 24.8968C37.3309 24.8968 38.8879 22.3428 38.8879 20.861V11.73H36.3783V18.8673H36.3797Z" fill="white"/>
<path d="M84.6104 11.4598C82.5207 11.4598 81.2765 12.7852 80.5804 15.2994H80.0844C79.9238 12.8933 78.8247 11.4598 76.5744 11.4598C74.565 11.4598 73.2405 12.7582 72.5162 15.2454H72.047V11.8111H68.4834V24.6252H72.1273V17.4879C72.1273 15.8924 73.1179 14.7846 74.6721 14.7846C75.9854 14.7846 76.6012 15.6762 76.6012 16.9746V24.6252H80.245V17.4879C80.245 15.8924 81.2089 14.7846 82.7631 14.7846C84.1017 14.7846 84.6921 15.6762 84.6921 16.9746V24.6252H88.3614V15.9464C88.3614 13.162 87.1017 11.4598 84.6104 11.4598Z" fill="white"/>
<path d="M96.7473 11.4598C92.6229 11.4598 90.2373 14.0551 90.2373 18.4891C90.2373 22.842 92.8624 24.9779 96.6937 24.9779C100.311 24.9779 101.783 23.3013 102.346 21.0843L99.2921 20.2467C98.9708 21.2194 98.4354 22.0314 96.7205 22.0314C94.9789 22.0314 94.0418 21.1128 93.8277 19.0579H102.427C102.481 18.3824 102.508 17.8691 102.508 17.3273C102.508 13.7849 100.659 11.4598 96.7473 11.4598ZM93.8544 17.1907C94.0418 15.0818 94.9803 14.2172 96.6402 14.2172C98.2747 14.2172 99.1047 15.1899 99.1582 17.1907H93.8544Z" fill="white"/>
<path d="M110.008 11.487C106.499 11.487 104.731 13.1366 104.302 15.4617L107.731 16.2452C107.972 15.0009 108.668 14.4065 109.874 14.4065C111.266 14.4065 111.83 15.163 111.83 16.4884V17.38H108.507C105.158 17.38 103.819 18.9756 103.819 21.2736C103.819 23.7878 105.4 24.8956 107.543 24.8956C109.713 24.8956 110.85 23.5987 111.493 21.5708H112.016V24.6254H115.445V16.4884C115.447 13.2717 113.866 11.487 110.008 11.487ZM111.83 19.7051C111.83 21.0845 110.784 22.0842 109.124 22.0842C107.731 22.0842 107.276 21.4357 107.276 20.6237C107.276 19.7321 108.025 19.1903 109.205 19.1903H111.83V19.7051Z" fill="white"/>
<path d="M132.07 16.8395C129.793 16.3802 129.445 15.8668 129.445 15.1643C129.445 14.4078 130.034 14.0011 131.24 14.0011C132.553 14.0011 133.142 14.5144 133.437 15.8398L136.679 15.1643C136.224 12.9203 135.018 11.4598 131.32 11.4598C127.731 11.4598 125.99 12.9203 125.99 15.3805C125.99 17.5704 127.168 18.7337 130.651 19.4902C132.982 19.9495 133.49 20.3818 133.49 21.1668C133.464 22.0044 132.848 22.4097 131.615 22.4097C130.035 22.4097 129.177 21.6802 128.856 20.2738L125.588 20.9507C125.936 23.2757 127.249 25.0064 131.536 25.0064C135.366 25.0064 137 23.4919 137 21.0047C136.999 19.0024 136.035 17.6771 132.07 16.8395Z" fill="white"/>
<path d="M119.023 25.7174C118.874 25.0832 118.721 24.4319 118.686 23.7778C118.652 23.1336 118.675 22.478 118.776 21.8381C118.962 20.6592 119.351 19.5116 119.684 18.3682C119.873 17.7198 120.061 17.0713 120.25 16.4243C120.426 15.8199 120.567 15.2084 120.729 14.6012C121.063 13.3555 121.413 12.1169 121.565 10.8328C121.875 8.22756 120.998 6.03048 120.104 3.67698C119.923 3.20201 119.668 2.74553 119.472 2.28052C119.226 2.49667 119.064 2.82374 118.976 3.13091C118.751 3.92726 118.902 4.78049 119.027 5.57827C119.106 6.07883 119.196 6.57655 119.274 7.07711C119.37 7.69855 119.46 8.32995 119.644 8.93005C119.799 9.43346 120.018 9.91127 120.13 10.4261C120.192 10.7076 120.323 11.1911 120.139 11.4542C119.946 11.7301 119.424 11.1641 119.309 11.0247C119.13 10.81 119.029 10.4943 118.907 10.2455C118.782 9.98664 118.645 9.73494 118.469 9.50741C118.325 9.32112 118.135 9.15189 117.89 9.13767C117.674 9.1263 117.495 9.27419 117.419 9.47044C117.216 9.98949 117.433 10.6721 117.581 11.1755C117.75 11.7471 117.931 12.3174 118.072 12.8976C118.158 13.2531 118.215 13.6157 118.327 13.9627C118.516 14.5543 118.724 15.1444 118.835 15.7574C118.885 16.0261 118.924 16.3077 118.868 16.5437C118.866 16.5494 118.865 16.5537 118.865 16.5565C118.864 16.5594 118.862 16.5637 118.861 16.5679C118.854 16.585 118.845 16.6021 118.835 16.6177H118.834C118.834 16.612 118.821 16.6191 118.824 16.6205C118.821 16.622 118.819 16.622 118.814 16.6234C118.796 16.6049 118.786 16.5878 118.765 16.558C118.572 16.2707 118.52 15.9081 118.368 15.6009C118.252 15.3677 118.173 15.1203 118.039 14.8927C117.882 14.624 117.659 14.4135 117.404 14.2414C117.238 14.1291 116.988 14.304 117.009 14.496C117.159 15.7929 117.446 17.0671 117.734 18.3384C117.843 18.8233 117.938 19.3139 118.066 19.7946C118.158 20.1359 118.256 20.4843 118.261 20.8412C118.261 20.8583 118.249 20.918 118.245 20.9436C118.159 20.9535 118.069 20.8952 117.977 20.817C117.738 20.6123 117.57 20.3307 117.347 20.1074C117.116 19.8756 116.77 19.7604 116.475 19.9538C116.147 20.1686 116.246 20.5881 116.391 20.8796C116.491 21.0787 116.616 21.2607 116.739 21.4456C116.942 21.7527 117.056 22.1509 117.207 22.4879C117.398 22.9188 117.638 23.3227 117.836 23.7493C118.045 24.1973 118.269 24.6367 118.482 25.0832C118.696 25.5311 118.871 25.9919 119.047 26.4569C119.147 26.7214 119.286 27.5149 119.543 27.9742C119.319 27.2405 119.2 26.4697 119.023 25.7174Z" fill="white"/>
<path d="M126.538 9.54719C126.328 9.06795 125.733 9.15897 125.337 9.30828C124.951 9.45333 124.617 9.71357 124.273 9.93399C124.039 10.0833 123.814 10.2483 123.6 10.4232C123.415 10.5739 123.26 10.7588 123.06 10.8882C123.042 10.8996 123.019 10.9152 122.995 10.928C122.891 10.4104 122.852 9.88137 122.863 9.35379C122.877 8.73946 123.004 8.13651 123.009 7.5236C123.021 6.28925 122.709 5.05349 122.189 3.94571C121.876 3.27876 121.351 2.56773 120.701 2.20795C120.448 2.06717 120.155 1.99891 119.877 2.06575C119.931 2.19515 119.983 2.32029 120.032 2.4369C120.384 3.25885 120.637 4.04952 120.934 4.87431C121.193 5.59245 121.458 6.33476 121.672 7.08987C121.957 8.09242 122.151 9.12057 122.124 10.1487C122.092 11.3646 121.892 12.5463 121.626 13.7323C121.368 14.887 121.079 16.0289 120.748 17.1637C120.372 18.4521 119.953 19.7334 119.609 21.0303C119.267 22.3187 119.144 23.6611 119.358 24.9751C119.464 25.6207 119.591 26.2677 119.719 26.9091C119.791 27.266 119.869 27.6286 119.976 27.9799C119.983 27.9842 119.988 27.9898 119.995 27.9955C119.99 27.9941 119.986 27.9927 119.98 27.9913C119.99 28.0254 120.001 28.0595 120.012 28.0937C120.057 27.7893 120.031 27.2532 120.05 27.1295C120.267 25.7373 120.522 24.3096 121.605 23.3283C121.91 23.051 122.306 22.8278 122.498 22.4467C122.584 22.276 122.467 22.084 122.278 22.0826C121.944 22.0812 121.607 22.2376 121.303 22.3642C120.917 22.5249 120.539 22.6998 120.132 22.7993C119.97 22.8392 119.614 22.8448 119.636 22.6543C119.667 22.3869 120.06 22.1537 120.266 22.0229C120.441 21.912 120.539 21.8935 120.753 21.7954C121.038 21.6645 121.309 21.4996 121.569 21.3261C122.055 21.0019 122.543 20.6719 123.019 20.3335C123.324 20.1173 123.987 19.604 123.787 19.1475C123.579 18.6697 122.826 18.7906 122.45 18.9299C122.174 19.0309 121.922 19.1887 121.65 19.2968C121.547 19.3366 121.437 19.3807 121.327 19.3679C121.299 19.3651 121.273 19.3494 121.296 19.3651C121.293 19.3622 121.289 19.3608 121.288 19.3594C121.288 19.3551 121.287 19.3494 121.283 19.3395C121.283 19.3409 121.29 19.2556 121.299 19.2143C121.313 19.1461 121.344 19.0835 121.376 19.0224C121.465 18.8474 121.626 18.6981 121.752 18.5531C121.929 18.3497 122.122 18.1649 122.333 17.9999C122.444 17.9131 122.561 17.8378 122.682 17.7653C122.816 17.6856 122.932 17.5733 123.049 17.468C123.453 17.1083 123.849 16.7499 124.296 16.4442C124.619 16.2237 124.953 15.9706 125.139 15.6151C125.333 15.2425 125.196 14.7519 124.813 14.5756C124.421 14.395 123.844 14.5884 123.46 14.7263C123.225 14.8102 122.987 14.9382 122.736 14.961C122.678 14.9666 122.664 14.9453 122.65 14.9226C122.647 14.9183 122.646 14.8259 122.654 14.7732C122.711 14.3992 122.949 14.0565 123.174 13.765C123.517 13.3213 123.932 12.9402 124.348 12.5691C125.02 11.9675 125.718 11.3489 126.242 10.6066C126.441 10.3208 126.696 9.90555 126.538 9.54719Z" fill="white"/>
</svg>
