<svg width="161" height="35" viewBox="0 0 161 35" fill="none" xmlns="http://www.w3.org/2000/svg">
<path d="M18.4446 14.8361C13.8401 12.2436 9.8559 12.9428 9.8559 12.9428C9.87565 12.9395 10.3052 14.9557 10.3052 14.9557C16.6229 15.331 19.307 18.1943 19.6756 20.3899C20.6712 26.3223 14.0836 27.3404 14.0836 27.3404C9.52841 28.287 6.78673 26.8853 6.87231 26.8953L7.19815 24.1051L0 28.116L5.22828 34.9984L5.62324 32.7945C5.62324 32.7945 22.1655 35.0598 23.4771 24.2247C23.8638 21.026 21.6981 16.668 18.4446 14.8361Z" fill="#001C05"/>
<path d="M17.9889 2.2039C17.9889 2.2039 1.44828 -0.0631118 0.138327 10.7687C-0.248405 13.9674 1.91894 18.3238 5.17242 20.1556C9.777 22.7482 13.7595 22.049 13.7595 22.049C13.7398 22.0523 13.3102 20.0361 13.3102 20.0361C6.99418 19.6607 4.30845 16.7975 3.93982 14.6035C2.94419 8.67277 9.53015 7.65635 9.53015 7.65635C14.0854 6.70969 16.827 8.11308 16.7415 8.10145L16.4156 10.89L23.6138 6.88241L18.3838 0L17.9889 2.2039Z" fill="#001C05"/>
<path d="M53.9499 12.8131C49.8506 12.8131 47.7869 14.7397 47.285 17.4551L51.2905 18.3702C51.572 16.917 52.3849 16.2228 53.7936 16.2228C55.4212 16.2228 56.0778 17.1063 56.0778 18.6542V19.6955H52.1973C48.2856 19.6955 46.7222 21.559 46.7222 24.2428C46.7222 27.1791 48.567 28.4729 51.07 28.4729C53.6043 28.4729 54.9324 26.9583 55.6828 24.5899H56.295V28.1574H60.2989V18.6525C60.3006 14.8974 58.4541 12.8131 53.9499 12.8131ZM56.0761 22.411C56.0761 24.0219 54.8551 25.1895 52.9165 25.1895C51.2889 25.1895 50.7573 24.4322 50.7573 23.4838C50.7573 22.4425 51.6328 21.8097 53.0103 21.8097H56.0761V22.411Z" fill="#001C05"/>
<path d="M72.5971 12.7816C70.2191 12.7816 68.8285 14.361 68.0468 16.9802H67.5285V13.1918H63.2744V32.9572H67.5285V24.2429H68.0156C68.766 26.8637 70.1253 28.5992 72.5988 28.5992C75.7897 28.5992 77.697 25.8522 77.697 20.7054C77.697 15.5602 75.8506 12.7816 72.5971 12.7816ZM70.5318 24.8109C68.7166 24.8109 67.5285 23.4224 67.5285 21.3381V20.1706C67.5285 18.0231 68.687 16.6663 70.5631 16.6663C72.5971 16.6663 73.5039 17.9617 73.5039 20.707C73.5039 23.4523 72.5971 24.8109 70.5318 24.8109Z" fill="#001C05"/>
<path d="M42.4878 21.4328C42.4878 23.2962 42.371 24.59 40.4275 24.59C38.5975 24.59 38.2404 23.5487 38.2404 22.0323V13.0972H33.9847V21.4328C33.9847 23.2962 33.3478 24.59 31.5326 24.59C29.9676 24.59 29.2797 23.5487 29.2797 22.0323V13.0972H24.9944V23.2331C24.9944 26.485 26.464 28.4746 29.3752 28.4746C31.8157 28.4746 33.2688 26.9268 34.0818 23.9921H34.661C34.8486 26.8022 35.6632 28.4746 39.8696 28.4746C43.5987 28.4746 45.4171 25.4918 45.4171 23.7613V13.0972H42.4862V21.4328H42.4878Z" fill="#001C05"/>
<path d="M98.8156 12.7816C96.3751 12.7816 94.922 14.3295 94.109 17.2658H93.5297C93.3421 14.4557 92.0585 12.7816 89.4304 12.7816C87.0837 12.7816 85.5367 14.2979 84.6909 17.2027H84.1428V13.1918H79.981V28.1574H84.2367V19.8218C84.2367 17.9584 85.3936 16.6646 87.2087 16.6646C88.7425 16.6646 89.4616 17.7059 89.4616 19.2223V28.1574H93.7173V19.8218C93.7173 17.9584 94.843 16.6646 96.6581 16.6646C98.2215 16.6646 98.9111 17.7059 98.9111 19.2223V28.1574H103.196V18.0215C103.196 14.7696 101.725 12.7816 98.8156 12.7816Z" fill="white"/>
<path d="M112.99 12.7816C108.173 12.7816 105.387 15.8126 105.387 20.991C105.387 26.0748 108.453 28.5693 112.927 28.5693C117.152 28.5693 118.871 26.6112 119.528 24.022L115.962 23.0438C115.587 24.1798 114.961 25.1281 112.958 25.1281C110.924 25.1281 109.83 24.0552 109.58 21.6554H119.623C119.686 20.8665 119.717 20.2669 119.717 19.6341C119.717 15.497 117.558 12.7816 112.99 12.7816ZM109.611 19.4747C109.83 17.0117 110.926 16.0019 112.865 16.0019C114.774 16.0019 115.743 17.1379 115.805 19.4747H109.611Z" fill="white"/>
<path d="M128.477 12.8132C124.38 12.8132 122.314 14.7398 121.814 17.4552L125.818 18.3703C126.099 16.9171 126.912 16.2229 128.321 16.2229C129.947 16.2229 130.605 17.1064 130.605 18.6543V19.6956H126.725C122.813 19.6956 121.25 21.5591 121.25 24.243C121.25 27.1793 123.096 28.473 125.599 28.473C128.133 28.473 129.461 26.9584 130.212 24.5901H130.822V28.1575H134.828V18.6543C134.83 14.8976 132.983 12.8132 128.477 12.8132ZM130.605 22.4111C130.605 24.0221 129.384 25.1896 127.445 25.1896C125.818 25.1896 125.286 24.4323 125.286 23.484C125.286 22.4426 126.162 21.8099 127.539 21.8099H130.605V22.4111Z" fill="white"/>
<path d="M154.243 19.0645C151.584 18.528 151.178 17.9285 151.178 17.108C151.178 16.2245 151.865 15.7495 153.274 15.7495C154.808 15.7495 155.496 16.349 155.84 17.8969L159.626 17.108C159.095 14.4873 157.686 12.7816 153.368 12.7816C149.176 12.7816 147.142 14.4873 147.142 17.3605C147.142 19.9181 148.518 21.2767 152.586 22.1602C155.308 22.6967 155.902 23.2016 155.902 24.1183C155.871 25.0966 155.152 25.5699 153.712 25.5699C151.867 25.5699 150.865 24.7179 150.49 23.0753L146.673 23.8659C147.08 26.5813 148.614 28.6025 153.62 28.6025C158.093 28.6025 160.002 26.8338 160.002 23.929C160 21.5906 158.874 20.0427 154.243 19.0645Z" fill="white"/>
<path d="M139.006 29.433C138.832 28.6923 138.654 27.9317 138.613 27.1677C138.573 26.4153 138.6 25.6497 138.718 24.9023C138.935 23.5255 139.39 22.1852 139.778 20.8499C139.998 20.0926 140.219 19.3353 140.439 18.5796C140.645 17.8738 140.81 17.1596 140.999 16.4505C141.389 14.9956 141.797 13.549 141.975 12.0493C142.337 9.00668 141.313 6.44072 140.268 3.69208C140.058 3.13736 139.76 2.60424 139.531 2.06116C139.243 2.3136 139.054 2.69559 138.952 3.05432C138.688 3.98438 138.865 4.98087 139.011 5.91258C139.103 6.49719 139.208 7.07848 139.299 7.66308C139.411 8.38886 139.516 9.12626 139.732 9.82712C139.913 10.4151 140.168 10.9731 140.3 11.5743C140.372 11.9031 140.525 12.4678 140.309 12.7751C140.084 13.0973 139.475 12.4363 139.34 12.2735C139.131 12.0227 139.013 11.654 138.871 11.3634C138.725 11.0611 138.565 10.7671 138.359 10.5014C138.191 10.2838 137.969 10.0862 137.683 10.0696C137.431 10.0563 137.222 10.229 137.133 10.4582C136.896 11.0644 137.15 11.8616 137.323 12.4495C137.52 13.1172 137.731 13.7832 137.895 14.4608C137.996 14.876 138.063 15.2995 138.193 15.7047C138.414 16.3956 138.657 17.0849 138.787 17.8007C138.845 18.1146 138.891 18.4434 138.825 18.7191C138.823 18.7258 138.822 18.7307 138.822 18.7341C138.82 18.7374 138.818 18.7424 138.817 18.7474C138.809 18.7673 138.799 18.7872 138.787 18.8055H138.786C138.786 18.7988 138.771 18.8071 138.774 18.8088C138.771 18.8105 138.767 18.8105 138.763 18.8121C138.741 18.7905 138.73 18.7706 138.705 18.7357C138.479 18.4002 138.419 17.9767 138.241 17.618C138.106 17.3456 138.014 17.0566 137.857 16.7909C137.673 16.477 137.413 16.2312 137.115 16.0303C136.921 15.8991 136.63 16.1033 136.654 16.3275C136.829 17.8422 137.165 19.3303 137.5 20.8151C137.629 21.3814 137.739 21.9544 137.889 22.5157C137.996 22.9143 138.111 23.3212 138.116 23.7381C138.116 23.758 138.103 23.8278 138.098 23.8577C137.997 23.8693 137.892 23.8012 137.785 23.7099C137.505 23.4707 137.309 23.1419 137.049 22.8811C136.779 22.6104 136.375 22.4759 136.031 22.7018C135.647 22.9525 135.762 23.4425 135.932 23.7829C136.049 24.0155 136.195 24.228 136.338 24.4439C136.575 24.8027 136.709 25.2677 136.885 25.6613C137.109 26.1646 137.388 26.6362 137.62 27.1345C137.864 27.6576 138.126 28.1708 138.374 28.6923C138.624 29.2155 138.828 29.7536 139.034 30.2967C139.151 30.6056 139.314 31.5323 139.613 32.0687C139.352 31.2118 139.213 30.3116 139.006 29.433Z" fill="white"/>
<path d="M147.782 10.5479C147.537 9.98818 146.843 10.0945 146.38 10.2689C145.929 10.4383 145.539 10.7422 145.138 10.9996C144.864 11.174 144.601 11.3667 144.351 11.5709C144.135 11.747 143.954 11.9629 143.721 12.114C143.699 12.1273 143.673 12.1456 143.645 12.1605C143.523 11.556 143.477 10.9382 143.49 10.322C143.507 9.60453 143.655 8.90034 143.661 8.18453C143.675 6.74295 143.311 5.2997 142.704 4.00593C142.338 3.227 141.725 2.3966 140.966 1.97641C140.67 1.81199 140.327 1.73227 140.003 1.81033C140.066 1.96146 140.127 2.10761 140.184 2.2438C140.596 3.20375 140.89 4.12716 141.237 5.09044C141.54 5.92915 141.85 6.79609 142.1 7.67799C142.432 8.84886 142.659 10.0496 142.628 11.2504C142.59 12.6704 142.356 14.0505 142.045 15.4356C141.744 16.7842 141.407 18.1179 141.02 19.4432C140.581 20.9479 140.092 22.4443 139.69 23.9589C139.291 25.4636 139.147 27.0315 139.398 28.566C139.521 29.3201 139.669 30.0757 139.819 30.8248C139.903 31.2416 139.993 31.6651 140.118 32.0753C140.127 32.0803 140.133 32.087 140.141 32.0936C140.135 32.092 140.13 32.0903 140.123 32.0886C140.135 32.1285 140.148 32.1684 140.161 32.2082C140.214 31.8528 140.183 31.2267 140.206 31.0822C140.459 29.4562 140.757 27.7888 142.021 26.6428C142.378 26.319 142.84 26.0582 143.064 25.6131C143.164 25.4138 143.028 25.1896 142.807 25.188C142.417 25.1863 142.024 25.369 141.669 25.5168C141.218 25.7045 140.777 25.9087 140.301 26.025C140.112 26.0715 139.695 26.0781 139.722 25.8556C139.758 25.5434 140.217 25.271 140.457 25.1182C140.661 24.9887 140.777 24.9671 141.027 24.8525C141.359 24.6997 141.675 24.507 141.98 24.3044C142.547 23.9257 143.117 23.5404 143.673 23.1451C144.028 22.8927 144.804 22.2931 144.57 21.76C144.326 21.202 143.448 21.3432 143.008 21.5059C142.686 21.6238 142.391 21.8082 142.073 21.9344C141.953 21.9809 141.825 22.0324 141.697 22.0175C141.664 22.0141 141.634 21.9959 141.66 22.0141C141.657 22.0108 141.652 22.0091 141.65 22.0075C141.65 22.0025 141.65 21.9959 141.646 21.9842C141.646 21.9859 141.654 21.8863 141.664 21.8381C141.68 21.7584 141.716 21.6853 141.754 21.6139C141.858 21.4096 142.045 21.2352 142.194 21.0658C142.399 20.8283 142.625 20.6124 142.872 20.4198C143.002 20.3184 143.138 20.2304 143.28 20.1457C143.436 20.0527 143.571 19.9215 143.708 19.7986C144.18 19.3784 144.642 18.9599 145.164 18.6028C145.541 18.3454 145.931 18.0498 146.148 17.6346C146.375 17.1994 146.216 16.6265 145.768 16.4205C145.31 16.2096 144.636 16.4355 144.188 16.5966C143.913 16.6945 143.635 16.844 143.342 16.8706C143.275 16.8772 143.258 16.8523 143.242 16.8257C143.239 16.8208 143.237 16.7128 143.247 16.6514C143.313 16.2146 143.591 15.8143 143.854 15.4738C144.254 14.9557 144.739 14.5106 145.225 14.0771C146.01 13.3746 146.824 12.6521 147.437 11.7852C147.669 11.4514 147.967 10.9664 147.782 10.5479Z" fill="white"/>
</svg>
