<svg width="29" height="22" viewBox="0 0 29 22" fill="none" xmlns="http://www.w3.org/2000/svg">
<path d="M18 15.446C21 13.6186 24.2821 12.2757 27.9964 12.4068C28.0438 13.3349 27.6364 15.1911 25.6276 15.1911C24.9959 15.1547 22.6717 15.0948 21.1742 17.4295C20.9058 17.848 19.5 19.7097 17.5 18.4915" stroke="#5DAB24" stroke-linecap="round" stroke-linejoin="round"/>
<path d="M5 10C5 7.9116 5.87247 7.27514 7.77605 5.52486C9.67963 3.77459 10.2122 3.0884 9.92891 1" stroke="#5DAB24" stroke-linecap="round" stroke-linejoin="round"/>
<path d="M10 10C10 8.14365 10.698 7.5779 12.2208 6.0221C13.7437 4.4663 14.1697 3.85635 13.9431 2" stroke="#5DAB24" stroke-linecap="round" stroke-linejoin="round"/>
<path d="M1.98231 17.8074L1 12.8213H18.4633C18.336 13.5747 17.9613 15.6268 17.481 17.8074C17.0008 19.988 15.4618 21.065 14.7524 21.3309H4.76553C2.75725 21.3309 2.07327 18.9819 1.98231 17.8074Z" stroke="#5DAB24" stroke-linecap="round" stroke-linejoin="round"/>
<path d="M14 10C14 8.60773 14.5235 8.18343 15.6656 7.01657C16.8078 5.84972 17.1273 5.39227 16.9573 4" stroke="#5DAB24" stroke-linecap="round" stroke-linejoin="round"/>
</svg>
