<svg id="Capa_1" enable-background="new 0 0 512 512" height="512" viewBox="0 0 512 512" width="512" xmlns="http://www.w3.org/2000/svg"><g><path d="m94.998 105.113c2.358 0 4.752-.557 6.983-1.73l23.114-12.159c7.338-3.86 10.154-12.931 6.29-20.261-3.862-7.33-12.945-10.143-20.281-6.284l-23.114 12.159c-7.338 3.86-10.154 12.931-6.291 20.261 2.688 5.101 7.903 8.014 13.299 8.014z"/><path d="m511.894 495.22-19.188-160.352 17.633-131.064c.45-3.342-.253-6.658-1.873-9.473 2.311-6.115 3.529-12.646 3.529-19.322 0-14.443-5.778-28.093-15.553-38.155 5.799-8.824 9.02-19.256 9.02-30.034 0-25.948-18.172-47.735-42.469-53.33-.66-29.606-24.973-53.49-54.764-53.49-29.792 0-54.105 23.884-54.764 53.491-24.298 5.595-42.468 27.382-42.468 53.33 0 4.143.493 8.272 1.421 12.296-2.414.565-4.796 1.257-7.137 2.066-1.862-1.773-3.815-3.451-5.858-5.018 1.153-10.602 3.07-22.772 4.793-30.032 2.829-11.914.097-24.251-7.496-33.846-7.575-9.572-18.926-15.062-31.145-15.062-17.303 0-32.498 11.053-37.825 27.552l-16.641 52.128c-1.703 1.353-3.342 2.78-4.915 4.278-5.503-1.91-11.189-3.139-17.005-3.662v-37.762c0-43.979-35.816-79.759-79.84-79.759s-79.839 35.78-79.839 79.759v112.552l-5.916-3.455c-4.954-2.894-11.127-2.713-15.903.466s-7.321 8.799-6.556 14.481l17.637 131.088-18.671 160.376c-.495 4.251.851 8.512 3.701 11.708 2.848 3.196 6.928 5.025 11.213 5.025h481.97c4.292 0 8.381-1.835 11.23-5.043 2.85-3.207 4.189-7.479 3.679-11.737zm-146.12-413.122c.947 0 1.924.062 2.987.189 5.105.61 10.185-1.439 13.434-5.432 3.248-3.993 4.222-9.371 2.579-14.247-.858-2.548-1.293-5.201-1.293-7.885 0-13.633 11.102-24.723 24.748-24.723s24.746 11.09 24.746 24.723c0 2.684-.435 5.337-1.293 7.885-1.643 4.877-.67 10.254 2.579 14.247s8.322 6.046 13.433 5.433c1.065-.127 2.042-.189 2.989-.189 13.646 0 24.748 11.09 24.748 24.723 0 7.892-3.833 15.379-10.254 20.03-4.308 3.12-6.64 8.284-6.133 13.575.507 5.292 3.78 9.919 8.603 12.165 8.696 4.05 14.316 12.85 14.316 22.419 0 6.189-2.302 12.109-6.481 16.669-1.739 1.897-2.895 4.121-3.483 6.452l-10.789 6.301-26.668-15.575c-4.682-2.733-10.475-2.733-15.156 0l-18.682 10.911v-10.756c0-34.354-24.284-63.136-56.6-70.15-.099-.213-.185-.43-.295-.64-1.848-3.534-2.784-7.37-2.784-11.4.002-13.635 11.104-24.725 24.749-24.725zm-183.138 65.116c2 0 3.977.145 5.926.42-3.023 7.926-4.694 16.512-4.694 25.485v29.339l-23.291-13.602c-4.682-2.733-10.475-2.733-15.156 0l-4.624 2.7v-2.546c0-23.046 18.769-41.796 41.839-41.796zm31.262 25.906c0-23.047 18.769-41.797 41.839-41.797 12.574 0 23.862 5.578 31.538 14.378.181.397.371.792.589 1.179.866 1.534 1.972 2.842 3.23 3.936 4.098 6.46 6.482 14.107 6.482 22.304v15.746l-.016-.009c-4.682-2.733-10.475-2.733-15.156 0l-26.667 15.575-26.668-15.575c-4.682-2.733-10.475-2.733-15.156 0l-.015.009zm109.019-25.472c1.955-.278 3.932-.433 5.919-.433 23.07 0 41.839 18.75 41.839 41.797v2.546l-4.624-2.7c-4.683-2.733-10.475-2.733-15.156 0l-23.29 13.602v-29.34c.001-8.968-1.668-17.55-4.688-25.472zm-66.572-73.709c1.297-4.016 5.006-6.714 9.23-6.714 4.076 0 6.503 2.297 7.587 3.667 1.094 1.383 2.788 4.302 1.835 8.317-1.475 6.213-2.988 14.882-4.2 23.712-4.859-1.039-9.894-1.599-15.06-1.599-2.805 0-5.568.179-8.291.493zm-146.995-43.939c27.465 0 49.809 22.322 49.809 49.759v41.41c-9.835 3.407-18.7 8.887-26.08 15.92-.118-2.078-.66-4.164-1.694-6.126-3.862-7.33-12.945-10.143-20.281-6.284l-23.114 12.159c-7.338 3.86-10.154 12.931-6.291 20.261 2.688 5.101 7.903 8.014 13.299 8.014 2.358 0 4.752-.557 6.983-1.73l17.992-9.464c-5.85 10.384-9.204 22.352-9.204 35.093v10.756l-18.682-10.91c-4.683-2.733-10.476-2.733-15.156 0l-17.391 10.155v-119.254c0-27.437 22.345-49.759 49.81-49.759zm-77.472 452 16.941-145.51c.145-1.24.133-2.494-.033-3.731l-13.79-102.494 7.689 4.491c4.682 2.733 10.475 2.733 15.156 0l26.667-15.575 26.668 15.575c4.682 2.733 10.475 2.733 15.156 0l26.667-15.575 26.668 15.575c4.682 2.733 10.475 2.733 15.156 0l26.667-15.575 26.668 15.575c4.682 2.733 10.475 2.733 15.156 0l26.667-15.575 26.668 15.575c4.682 2.733 10.475 2.733 15.156 0l26.667-15.575 26.668 15.575c4.682 2.733 10.475 2.733 15.156 0l26.667-15.575 26.668 15.575c4.682 2.733 10.475 2.733 15.156 0l7.688-4.49-13.789 102.494c-.169 1.253-.178 2.523-.027 3.778l17.409 145.462z"/><path d="m334.689 289.668h-157.904c-8.293 0-15.015 6.716-15.015 15v60.179c0 8.284 6.723 15 15.015 15h157.904c8.293 0 15.015-6.716 15.015-15v-60.179c0-8.284-6.722-15-15.015-15zm-15.015 60.179h-127.874v-30.179h127.874z"/></g></svg>