<svg width="24" height="24" viewBox="0 0 24 24" fill="none" xmlns="http://www.w3.org/2000/svg">
<path d="M3.18755 18.4801C3.18755 18.4801 4.85458 16.343 4.67797 13.1377C4.5016 9.93262 3.7367 8.25086 3.65819 6.90545C3.5799 5.56005 3.65819 6.13403 4.325 6.23299C4.99181 6.33171 5.01161 5.95587 5.52139 5.85691C5.52139 5.85691 6.38391 5.52103 6.85477 5.69896C6.85477 5.69896 7.54139 5.97608 7.87456 8.86457C8.20773 11.7531 7.83565 14.5228 7.24712 15.8088C6.6586 17.0947 6.10968 18.5788 4.93286 19.746C3.75627 20.9135 0.853716 23.2083 1.8735 23.9999C1.8735 23.9999 -0.930735 23.8812 3.18755 18.4801Z" fill="#EF051A"/>
<path d="M5.00148 5.45941C4.80831 5.80873 4.09027 5.59369 4.09092 5.42876C4.09114 5.40516 4.18576 5.3711 4.21504 5.35189C4.21504 5.35189 5.13937 5.38254 4.60138 3.03289C4.06339 0.683248 2.35284 0.0690177 2.35284 0.0690177C2.35284 0.0690177 3.7048 -0.453017 4.51878 1.37435C5.33276 3.20171 5.36029 3.30948 5.48441 3.78554C5.60852 4.2616 5.59476 4.73766 6.58813 4.99867C6.58792 4.99867 5.22219 5.05997 5.00148 5.45941Z" fill="#EF051A"/>
</svg>
