<?xml version="1.0" encoding="utf-8"?>
<svg version="1.1" id="Layer_1" xmlns="http://www.w3.org/2000/svg" xmlns:xlink="http://www.w3.org/1999/xlink" x="0px" y="0px"
	 viewBox="0 0 24 24" style="enable-background:new 0 0 24 24;" xml:space="preserve">
<path d="M20.31,7.5h-2.18V3.2c0-0.28-0.22-0.5-0.5-0.5H6.44c-0.28,0-0.5,0.22-0.5,0.5v4.3H3.69c-0.28,0-0.5,0.22-0.5,0.5v8
	c0,0.28,0.22,0.5,0.5,0.5h2.25v4.3c0,0.28,0.22,0.5,0.5,0.5h11.2c0.28,0,0.5-0.22,0.5-0.5v-4.3h2.18c0.28,0,0.5-0.22,0.5-0.5V8
	C20.81,7.72,20.59,7.5,20.31,7.5z M6.94,3.7h10.2v3.8H6.94V3.7z M6.94,20.3v-6.2h10.2V16c0,0,0,0.01,0,0.01v4.29H6.94z M19.81,15.5
	h-1.68v-1.9c0-0.28-0.22-0.5-0.5-0.5h0H6.44h0c-0.28,0-0.5,0.22-0.5,0.5v1.9H4.19v-7h2.25h11.2h2.18V15.5z"/>
</svg>
