<?xml version="1.0" standalone="no"?>
<!DOCTYPE svg PUBLIC "-//W3C//DTD SVG 20010904//EN"
 "http://www.w3.org/TR/2001/REC-SVG-20010904/DTD/svg10.dtd">
<svg version="1.0" xmlns="http://www.w3.org/2000/svg"
 width="193.000000pt" height="193.000000pt" viewBox="0 0 193.000000 193.000000"
 preserveAspectRatio="xMidYMid meet">
<metadata>
Created by potrace 1.11, written by Peter Selinger 2001-2013
</metadata>
<g transform="translate(0.000000,193.000000) scale(0.100000,-0.100000)"
fill="#000000" stroke="none">
<path d="M1319 1910 c-1 -5 -2 -13 -3 -17 -1 -5 -5 -24 -9 -43 l-7 -35 -167 0
c-236 0 -329 -14 -480 -70 -294 -111 -413 -393 -282 -670 38 -81 59 -110 126
-177 101 -103 294 -178 468 -183 50 -2 93 -1 96 1 3 2 1 27 -6 56 -11 53 -12
53 -56 59 -24 4 -62 9 -84 12 -98 15 -200 56 -270 111 -51 40 -70 62 -97 111
-30 56 -31 181 -1 247 27 58 92 120 163 154 122 58 336 76 464 39 l57 -17 -6
-56 c-3 -31 -8 -65 -11 -74 -8 -26 9 -22 74 14 74 41 305 169 315 175 6 3 -14
34 -56 88 -78 99 -207 272 -207 278 0 11 -20 8 -21 -3z"/>
<path d="M862 1174 c13 -64 19 -70 70 -72 68 -4 195 -39 264 -73 75 -37 152
-108 178 -164 24 -50 29 -155 10 -216 -42 -140 -232 -240 -459 -241 -114 0
-222 22 -231 47 -3 7 -1 42 4 77 5 35 9 64 7 66 -3 3 -14 -3 -253 -136 l-142
-79 142 -187 c149 -197 151 -199 159 -120 5 46 13 51 76 44 223 -25 528 26
677 114 199 117 287 350 212 562 -49 140 -146 260 -262 323 -110 60 -226 93
-351 99 l-111 5 10 -49z"/>
</g>
</svg>
