<svg width="48" height="42" viewBox="0 0 48 42" fill="none" xmlns="http://www.w3.org/2000/svg">
<path d="M14.9902 19C14.9902 19 13.3391 16.3457 15.9883 15.284L19.1674 14.2223C19.1674 14.2223 21.2868 13.1605 22.3465 16.8766L22.8764 18.4691M17.4184 14.8024L16.3579 11.6173M25.4627 18.5185C25.4627 15.3333 27.5977 13.2099 30.2314 13.2099C32.865 13.2099 35 15.3333 35 18.5185M16.2586 11.7255C16.2586 11.7255 19.2696 11.921 19.5139 9.57662C19.7581 7.23225 18.0133 6.84502 18.0133 6.84502C18.0133 6.84502 18.6914 5.43714 17.5945 4.06044C16.6737 2.8546 14.7518 3.10071 14.7518 3.10071C14.7518 3.10071 14.0015 0.38282 11.9654 1.12998C9.67501 1.97046 11.0688 4.50863 11.0688 4.50863C11.0688 4.50863 9.70958 5.50718 10.0567 7.19777C10.3739 8.74199 11.5573 9.09396 11.5573 9.09396C11.5573 9.09396 11.0688 11.7255 12.8485 12.4853C14.794 13.1951 16.2586 11.7255 16.2586 11.7255ZM34.7874 8.44992C34.7874 8.44992 30.2317 7.87914 30.7616 13.1878C36.0601 13.1878 34.7874 8.44992 34.7874 8.44992Z" stroke="#5DAB24" stroke-width="2" stroke-miterlimit="10"/>
<path d="M5.38477 18.4922H42.6155L38 37.5C38 37.5 37.6095 40.5714 33.9617 40.5714C23.3078 40.5714 24.5 40.5714 14.0386 40.5714C10.4567 40.5714 10 37.5 10 37.5L5.38477 18.4922Z" stroke="#5DAB24" stroke-width="2" stroke-linecap="round" stroke-linejoin="round"/>
<path d="M9.00031 18.0001L4.55603 5.7992" stroke="#5DAB24" stroke-width="2" stroke-linecap="round" stroke-linejoin="round"/>
<path d="M39 18L43.4442 5.7995" stroke="#5DAB24" stroke-width="2" stroke-linecap="round" stroke-linejoin="round"/>
<path d="M32.1445 25.3361V34.0515" stroke="#5DAB24" stroke-width="2" stroke-linecap="round" stroke-linejoin="round"/>
<path d="M24 25.3361V34.0515" stroke="#5DAB24" stroke-width="2" stroke-linecap="round" stroke-linejoin="round"/>
<path d="M15.856 25.3361V34.0515" stroke="#5DAB24" stroke-width="2" stroke-linecap="round" stroke-linejoin="round"/>
<path d="M45 18.5H3" stroke="#5DAB24" stroke-width="2" stroke-linecap="round" stroke-linejoin="round"/>
</svg>
