<svg width="24" height="24" viewBox="0 0 24 24" fill="none" xmlns="http://www.w3.org/2000/svg">
<path d="M10.5408 1.06637C10.7143 0.66339 11.2857 0.663389 11.4592 1.06637L14.1271 7.26154C14.1995 7.42963 14.358 7.54474 14.5402 7.56164L21.2566 8.18457C21.6935 8.22509 21.87 8.7685 21.5404 9.05807L16.4729 13.5098C16.3354 13.6306 16.2749 13.8169 16.3151 13.9954L17.7981 20.5756C17.8946 21.0036 17.4324 21.3394 17.0551 21.1154L11.2553 17.6716C11.0979 17.5781 10.9021 17.5781 10.7447 17.6716L4.9449 21.1154C4.56763 21.3394 4.10538 21.0036 4.20185 20.5756L5.68489 13.9954C5.72513 13.8169 5.66461 13.6306 5.52712 13.5098L0.459593 9.05807C0.129962 8.7685 0.306524 8.22509 0.74341 8.18457L7.4598 7.56164C7.64203 7.54474 7.80047 7.42963 7.87285 7.26154L10.5408 1.06637Z" fill="#90CA4A"/>
</svg>
