<svg width="45" height="20" viewBox="0 0 45 20" fill="none" xmlns="http://www.w3.org/2000/svg">
<path d="M10.5403 8.47866C7.90897 6.99715 5.6322 7.39671 5.6322 7.39671C5.64349 7.39482 5.88894 8.547 5.88894 8.547C9.49923 8.76149 11.0331 10.3977 11.2437 11.6524C11.8127 15.0425 8.04815 15.6243 8.04815 15.6243C5.44506 16.1653 3.87831 15.3642 3.92721 15.3699L4.11342 13.7755L0 16.0675L2.98773 20.0005L3.21343 18.7411C3.21343 18.7411 12.6666 20.0356 13.4161 13.8438C13.6371 12.0159 12.3995 9.5255 10.5403 8.47866Z" fill="#001C05"/>
<path d="M10.28 1.25943C10.28 1.25943 0.827763 -0.0360655 0.0791848 6.15384C-0.141815 7.98177 1.09672 10.4712 2.95594 11.518C5.58725 12.9996 7.86308 12.6 7.86308 12.6C7.85179 12.6019 7.60634 11.4497 7.60634 11.4497C3.99699 11.2352 2.46222 9.599 2.25157 8.34526C1.68261 4.9561 5.44619 4.37526 5.44619 4.37526C8.04928 3.83428 9.61603 4.63626 9.56713 4.62961L9.38092 6.22312L13.4943 3.93299L10.5057 0L10.28 1.25943Z" fill="#001C05"/>
<path d="M30.8305 7.32227C28.4879 7.32227 27.3086 8.4232 27.0218 9.97494L29.3108 10.4979C29.4716 9.66744 29.9362 9.27073 30.7412 9.27073C31.6713 9.27073 32.0465 9.77564 32.0465 10.6602V11.2553H29.829C27.5936 11.2553 26.7002 12.3201 26.7002 13.8538C26.7002 15.5318 27.7544 16.2711 29.1848 16.2711C30.6331 16.2711 31.392 15.4056 31.8208 14.0522H32.1706V16.0908H34.4587V10.6592C34.4596 8.51336 33.4045 7.32227 30.8305 7.32227ZM32.0456 12.807C32.0456 13.7276 31.3478 14.3948 30.24 14.3948C29.3099 14.3948 29.0061 13.962 29.0061 13.4201C29.0061 12.825 29.5064 12.4634 30.2936 12.4634H32.0456V12.807Z" fill="#001C05"/>
<path d="M41.4857 7.30469C40.1268 7.30469 39.3321 8.20726 38.8854 9.70396H38.5892V7.53911H36.1582V18.8341H38.5892V13.8543H38.8676C39.2964 15.3519 40.0732 16.3437 41.4866 16.3437C43.3101 16.3437 44.4001 14.7739 44.4001 11.8327C44.4001 8.8925 43.3449 7.30469 41.4857 7.30469ZM40.3055 14.1789C39.2682 14.1789 38.5892 13.3854 38.5892 12.1943V11.5271C38.5892 10.3 39.2513 9.52459 40.3233 9.52459C41.4857 9.52459 42.0039 10.2649 42.0039 11.8337C42.0039 13.4025 41.4857 14.1789 40.3055 14.1789Z" fill="#001C05"/>
<path d="M24.2799 12.2478C24.2799 13.3127 24.2131 14.052 23.1025 14.052C22.0568 14.052 21.8527 13.4569 21.8527 12.5904V7.48438H19.4207V12.2478C19.4207 13.3127 19.0568 14.052 18.0195 14.052C17.1252 14.052 16.7321 13.4569 16.7321 12.5904V7.48438H14.2832V13.2766C14.2832 15.1349 15.123 16.2719 16.7866 16.2719C18.1813 16.2719 19.0117 15.3874 19.4762 13.7103H19.8073C19.9145 15.3162 20.38 16.2719 22.7837 16.2719C24.9147 16.2719 25.9539 14.5674 25.9539 13.5784V7.48438H24.279V12.2478H24.2799Z" fill="#001C05"/>
</svg>
