<svg width="24" height="20" viewBox="0 0 24 20" fill="none" xmlns="http://www.w3.org/2000/svg">
<path d="M11.3316 5.93799L11.2812 5.10749C11.1301 2.95509 12.4563 0.98909 14.5548 0.22649C15.327 -0.0447095 16.6364 -0.0786101 17.4926 0.15869C17.8283 0.26039 18.4663 0.599291 18.9195 0.904391L19.7421 1.46369L20.6486 1.17559C21.1523 1.02299 21.8238 0.76879 22.1259 0.59929C22.4113 0.44679 22.6631 0.36199 22.6631 0.41289C22.6631 0.70099 22.042 1.68399 21.5216 2.22629C20.8165 2.98899 21.018 3.05679 22.4449 2.54829C23.3011 2.26019 23.3178 2.26019 23.15 2.58219C23.0492 2.75169 22.5288 3.34489 21.9748 3.88719C21.0347 4.81939 20.9844 4.92109 20.9844 5.70069C20.9844 6.90399 20.4136 9.41229 19.8428 10.7851C18.7852 13.3612 16.5189 16.022 14.2526 17.3609C11.063 19.2422 6.8157 19.7167 3.24 18.6151C2.0481 18.2422 0 17.2931 0 17.1237C0 17.0728 0.6211 17.005 1.3766 16.9881C2.9546 16.9542 4.5326 16.5135 5.8756 15.7339L6.7822 15.1916L5.7413 14.8357C4.264 14.3272 2.9378 13.1578 2.6021 12.0562C2.5013 11.7003 2.5349 11.6833 3.475 11.6833L4.4487 11.6664L3.6261 11.2766C2.6524 10.7851 1.7627 9.95459 1.3262 9.10719C1.0072 8.49709 0.6044 6.95479 0.7219 6.83619C0.7554 6.78539 1.108 6.88699 1.5109 7.02259C2.6692 7.44629 2.8203 7.34459 2.1488 6.63279C0.8897 5.34479 0.5036 3.42959 1.108 1.61619L1.3934 0.80269L2.5013 1.90429C4.7677 4.12449 7.4369 5.44649 10.4922 5.83629L11.3316 5.93799Z" fill="#1DA1F2"/>
</svg>
