<?xml version="1.0" encoding="UTF-8" standalone="no"?>
<!DOCTYPE svg PUBLIC "-//W3C//DTD SVG 1.1//EN" "http://www.w3.org/Graphics/SVG/1.1/DTD/svg11.dtd">
<svg version="1.1" xmlns="http://www.w3.org/2000/svg" xmlns:xlink="http://www.w3.org/1999/xlink" preserveAspectRatio="xMidYMid meet" viewBox="74.89120606060614 221.24073031807956 37.999999999999986 37.99999999999994" width="34" height="34"><defs><path d="M109.89 239.24C109.89 248.62 102.27 256.24 92.89 256.24C83.51 256.24 75.89 248.62 75.89 239.24C75.89 229.86 83.51 222.24 92.89 222.24C102.27 222.24 109.89 229.86 109.89 239.24Z" id="c14RoxdEwr"></path><path d="M99.89 229.15C99.89 229.15 99.89 229.15 99.89 229.15C99.89 232.75 99.89 234.75 99.89 235.15C99.89 235.15 99.89 235.15 99.89 235.15C91.49 235.15 86.82 235.15 85.89 235.15C85.89 235.15 85.89 235.15 85.89 235.15C85.89 231.55 85.89 229.55 85.89 229.15C85.89 229.15 85.89 229.15 85.89 229.15C94.29 229.15 98.96 229.15 99.89 229.15Z" id="dPwlMWPHa"></path><path d="M103.24 235.15L103.24 245.15L99.89 245.15L99.89 242.15L85.89 242.15L85.89 245.15L82.45 245.15L82.45 235.15L103.24 235.15Z" id="e2cumHNvyc"></path><path d="M99.89 242.15C99.89 242.15 99.89 242.15 99.89 242.15C99.89 247.55 99.89 250.55 99.89 251.15C99.89 251.15 99.89 251.15 99.89 251.15C91.49 251.15 86.82 251.15 85.89 251.15C85.89 251.15 85.89 251.15 85.89 251.15C85.89 245.75 85.89 242.75 85.89 242.15C85.89 242.15 85.89 242.15 85.89 242.15C94.29 242.15 98.96 242.15 99.89 242.15Z" id="c2mCymaYK"></path></defs><g><g><use xlink:href="#c14RoxdEwr" opacity="1" fill="#26ec66" fill-opacity="1"></use></g><g><use xlink:href="#dPwlMWPHa" opacity="1" fill="#000000" fill-opacity="0"></use><g><use xlink:href="#dPwlMWPHa" opacity="1" fill-opacity="0" stroke="#000000" stroke-width="1" stroke-opacity="1"></use></g></g><g><use xlink:href="#e2cumHNvyc" opacity="1" fill="#000000" fill-opacity="0"></use><g><use xlink:href="#e2cumHNvyc" opacity="1" fill-opacity="0" stroke="#000000" stroke-width="1" stroke-opacity="1"></use></g></g><g><use xlink:href="#c2mCymaYK" opacity="1" fill="#000000" fill-opacity="0"></use><g><use xlink:href="#c2mCymaYK" opacity="1" fill-opacity="0" stroke="#000000" stroke-width="1" stroke-opacity="1"></use></g></g></g></svg>